<?xml version="1.0" encoding="UTF-8" standalone="no"?>
<!DOCTYPE svg PUBLIC "-//W3C//DTD SVG 1.1//EN"
 "http://www.w3.org/Graphics/SVG/1.1/DTD/svg11.dtd">
<!-- Generated by graphviz version 2.43.0 (0)
 -->
<!-- Title: DSATUR_G2 Pages: 1 -->
<svg width="190pt" height="163pt"
 viewBox="0.00 0.00 189.92 162.74" xmlns="http://www.w3.org/2000/svg" xmlns:xlink="http://www.w3.org/1999/xlink">
<g id="graph0" class="graph" transform="scale(1 1) rotate(0) translate(4 158.74)">
<title>DSATUR_G2</title>
<polygon fill="transparent" stroke="transparent" points="-4,4 -4,-158.74 185.92,-158.74 185.92,4 -4,4"/>
<text text-anchor="middle" x="90.96" y="-9.2" font-family="Times,serif" font-size="16.00" fill="grey">DSATUR_G2</text>
<!-- 0 -->
<g id="node1" class="node">
<title>0</title>
<ellipse fill="#cdff00" stroke="grey" cx="76.38" cy="-73.47" rx="14.5" ry="14.5"/>
<text text-anchor="middle" x="76.38" y="-69.77" font-family="Times,serif" font-size="14.00">0</text>
</g>
<!-- 1 -->
<g id="node2" class="node">
<title>1</title>
<ellipse fill="#ff00bf" stroke="grey" cx="118.96" cy="-40.5" rx="14.5" ry="14.5"/>
<text text-anchor="middle" x="118.96" y="-36.8" font-family="Times,serif" font-size="14.00">1</text>
</g>
<!-- 0&#45;&#45;1 -->
<g id="edge1" class="edge">
<title>0&#45;&#45;1</title>
<path fill="none" stroke="grey" d="M88.01,-64.46C94.02,-59.81 101.33,-54.15 107.33,-49.5"/>
</g>
<!-- 2 -->
<g id="node3" class="node">
<title>2</title>
<ellipse fill="#0018ff" stroke="grey" cx="147.64" cy="-81.96" rx="14.5" ry="14.5"/>
<text text-anchor="middle" x="147.64" y="-78.26" font-family="Times,serif" font-size="14.00">2</text>
</g>
<!-- 0&#45;&#45;2 -->
<g id="edge2" class="edge">
<title>0&#45;&#45;2</title>
<path fill="none" stroke="grey" d="M90.8,-75.18C103.16,-76.66 120.88,-78.77 133.24,-80.24"/>
</g>
<!-- 3 -->
<g id="node4" class="node">
<title>3</title>
<ellipse fill="#00ff8c" stroke="grey" cx="110.64" cy="-114.51" rx="14.5" ry="14.5"/>
<text text-anchor="middle" x="110.64" y="-110.81" font-family="Times,serif" font-size="14.00">3</text>
</g>
<!-- 0&#45;&#45;3 -->
<g id="edge3" class="edge">
<title>0&#45;&#45;3</title>
<path fill="none" stroke="grey" d="M85.74,-84.68C90.57,-90.47 96.45,-97.52 101.29,-103.31"/>
</g>
<!-- 5 -->
<g id="node6" class="node">
<title>5</title>
<ellipse fill="#0018ff" stroke="grey" cx="48.2" cy="-126.42" rx="14.5" ry="14.5"/>
<text text-anchor="middle" x="48.2" y="-122.72" font-family="Times,serif" font-size="14.00">5</text>
</g>
<!-- 0&#45;&#45;5 -->
<g id="edge4" class="edge">
<title>0&#45;&#45;5</title>
<path fill="none" stroke="grey" d="M69.56,-86.28C65.19,-94.49 59.55,-105.1 55.15,-113.35"/>
</g>
<!-- 6 -->
<g id="node7" class="node">
<title>6</title>
<ellipse fill="#00ff8c" stroke="grey" cx="14.5" cy="-75.46" rx="14.5" ry="14.5"/>
<text text-anchor="middle" x="14.5" y="-71.76" font-family="Times,serif" font-size="14.00">6</text>
</g>
<!-- 0&#45;&#45;6 -->
<g id="edge5" class="edge">
<title>0&#45;&#45;6</title>
<path fill="none" stroke="grey" d="M61.71,-73.94C51.85,-74.26 38.9,-74.67 29.06,-74.99"/>
</g>
<!-- 1&#45;&#45;2 -->
<g id="edge6" class="edge">
<title>1&#45;&#45;2</title>
<path fill="none" stroke="grey" d="M127.41,-52.71C131.17,-58.16 135.6,-64.56 139.35,-69.97"/>
</g>
<!-- 1&#45;&#45;3 -->
<g id="edge7" class="edge">
<title>1&#45;&#45;3</title>
<path fill="none" stroke="grey" d="M117.31,-55.12C115.85,-68.1 113.73,-86.95 112.28,-99.92"/>
</g>
<!-- 2&#45;&#45;3 -->
<g id="edge8" class="edge">
<title>2&#45;&#45;3</title>
<path fill="none" stroke="grey" d="M136.74,-91.55C131.96,-95.75 126.37,-100.67 121.59,-104.87"/>
</g>
<!-- 4 -->
<g id="node5" class="node">
<title>4</title>
<ellipse fill="#cdff00" stroke="grey" cx="167.42" cy="-140.24" rx="14.5" ry="14.5"/>
<text text-anchor="middle" x="167.42" y="-136.54" font-family="Times,serif" font-size="14.00">4</text>
</g>
<!-- 2&#45;&#45;4 -->
<g id="edge9" class="edge">
<title>2&#45;&#45;4</title>
<path fill="none" stroke="grey" d="M152.33,-95.77C155.44,-104.93 159.5,-116.9 162.63,-126.12"/>
</g>
<!-- 3&#45;&#45;4 -->
<g id="edge10" class="edge">
<title>3&#45;&#45;4</title>
<path fill="none" stroke="grey" d="M124.09,-120.61C133.15,-124.71 145.03,-130.09 154.06,-134.18"/>
</g>
<!-- 3&#45;&#45;5 -->
<g id="edge11" class="edge">
<title>3&#45;&#45;5</title>
<path fill="none" stroke="grey" d="M96.16,-117.27C86.07,-119.19 72.67,-121.75 62.6,-123.67"/>
</g>
<!-- 5&#45;&#45;6 -->
<g id="edge12" class="edge">
<title>5&#45;&#45;6</title>
<path fill="none" stroke="grey" d="M40.04,-114.08C34.74,-106.07 27.87,-95.67 22.58,-87.68"/>
</g>
</g>
</svg>
