<?xml version="1.0" encoding="UTF-8" standalone="no"?>
<!DOCTYPE svg PUBLIC "-//W3C//DTD SVG 1.1//EN"
 "http://www.w3.org/Graphics/SVG/1.1/DTD/svg11.dtd">
<!-- Generated by graphviz version 2.43.0 (0)
 -->
<!-- Title: Hasse de M4 Pages: 1 -->
<svg width="150pt" height="72pt"
 viewBox="0.00 0.00 149.89 71.92" xmlns="http://www.w3.org/2000/svg" xmlns:xlink="http://www.w3.org/1999/xlink">
<g id="graph0" class="graph" transform="scale(1 1) rotate(0) translate(4 67.92)">
<title>Hasse de M4</title>
<polygon fill="transparent" stroke="transparent" points="-4,4 -4,-67.92 145.89,-67.92 145.89,4 -4,4"/>
<text text-anchor="middle" x="70.94" y="-9.2" font-family="Times,serif" font-size="16.00" fill="grey">Hasse de M4</text>
<!-- 0 -->
<g id="node1" class="node">
<title>0</title>
<ellipse fill="#ffffff" stroke="grey" cx="89.53" cy="-41.44" rx="14.5" ry="14.5"/>
<text text-anchor="middle" x="89.53" y="-37.74" font-family="Times,serif" font-size="14.00">0</text>
</g>
<!-- 2 -->
<g id="node3" class="node">
<title>2</title>
<ellipse fill="#ffffff" stroke="grey" cx="51.5" cy="-40.5" rx="14.5" ry="14.5"/>
<text text-anchor="middle" x="51.5" y="-36.8" font-family="Times,serif" font-size="14.00">2</text>
</g>
<!-- 0&#45;&gt;2 -->
<g id="edge1" class="edge">
<title>0&#45;&gt;2</title>
<path fill="none" stroke="grey" d="M74.94,-41.08C74.4,-41.07 73.87,-41.06 73.32,-41.04"/>
<polygon fill="grey" stroke="grey" points="73.31,-38.59 66.25,-40.87 73.18,-43.49 73.31,-38.59"/>
</g>
<!-- 1 -->
<g id="node2" class="node">
<title>1</title>
<ellipse fill="#ffffff" stroke="grey" cx="127.39" cy="-44.25" rx="14.5" ry="14.5"/>
<text text-anchor="middle" x="127.39" y="-40.55" font-family="Times,serif" font-size="14.00">1</text>
</g>
<!-- 1&#45;&gt;0 -->
<g id="edge2" class="edge">
<title>1&#45;&gt;0</title>
<path fill="none" stroke="grey" d="M112.86,-43.17C112.33,-43.13 111.79,-43.09 111.25,-43.05"/>
<polygon fill="grey" stroke="grey" points="111.37,-40.6 104.21,-42.53 111.01,-45.49 111.37,-40.6"/>
</g>
<!-- 3 -->
<g id="node4" class="node">
<title>3</title>
<ellipse fill="#ffffff" stroke="grey" cx="14.5" cy="-49.42" rx="14.5" ry="14.5"/>
<text text-anchor="middle" x="14.5" y="-45.72" font-family="Times,serif" font-size="14.00">3</text>
</g>
<!-- 2&#45;&gt;3 -->
<g id="edge3" class="edge">
<title>2&#45;&gt;3</title>
<path fill="none" stroke="grey" d="M37.3,-43.92C36.78,-44.05 36.26,-44.17 35.73,-44.3"/>
<polygon fill="grey" stroke="grey" points="35.08,-41.94 28.85,-45.96 36.23,-46.7 35.08,-41.94"/>
</g>
</g>
</svg>
