<?xml version="1.0" encoding="UTF-8" standalone="no"?>
<!DOCTYPE svg PUBLIC "-//W3C//DTD SVG 1.1//EN"
 "http://www.w3.org/Graphics/SVG/1.1/DTD/svg11.dtd">
<!-- Generated by graphviz version 2.43.0 (0)
 -->
<!-- Title: matdiv(8) Pages: 1 -->
<svg width="177pt" height="211pt"
 viewBox="0.00 0.00 177.09 211.44" xmlns="http://www.w3.org/2000/svg" xmlns:xlink="http://www.w3.org/1999/xlink">
<g id="graph0" class="graph" transform="scale(1 1) rotate(0) translate(4 207.44)">
<title>matdiv(8)</title>
<polygon fill="transparent" stroke="transparent" points="-4,4 -4,-207.44 173.09,-207.44 173.09,4 -4,4"/>
<text text-anchor="middle" x="84.54" y="-9.2" font-family="Times,serif" font-size="16.00" fill="grey">matdiv(8)</text>
<!-- 1 -->
<g id="node1" class="node">
<title>1</title>
<ellipse fill="#ffffff" stroke="grey" cx="60.47" cy="-82.96" rx="14.5" ry="14.5"/>
<text text-anchor="middle" x="60.47" y="-79.26" font-family="Times,serif" font-size="14.00">1</text>
</g>
<!-- 2 -->
<g id="node2" class="node">
<title>2</title>
<ellipse fill="#ffffff" stroke="grey" cx="77.91" cy="-131.91" rx="14.5" ry="14.5"/>
<text text-anchor="middle" x="77.91" y="-128.21" font-family="Times,serif" font-size="14.00">2</text>
</g>
<!-- 1&#45;&gt;2 -->
<g id="edge1" class="edge">
<title>1&#45;&gt;2</title>
<path fill="none" stroke="grey" d="M65.42,-96.86C67.02,-101.34 68.83,-106.41 70.56,-111.27"/>
<polygon fill="grey" stroke="grey" points="68.35,-112.38 73.01,-118.15 72.97,-110.74 68.35,-112.38"/>
</g>
<!-- 3 -->
<g id="node3" class="node">
<title>3</title>
<ellipse fill="#ffffff" stroke="grey" cx="14.5" cy="-107.9" rx="14.5" ry="14.5"/>
<text text-anchor="middle" x="14.5" y="-104.2" font-family="Times,serif" font-size="14.00">3</text>
</g>
<!-- 1&#45;&gt;3 -->
<g id="edge2" class="edge">
<title>1&#45;&gt;3</title>
<path fill="none" stroke="grey" d="M47.42,-90.04C43.21,-92.33 38.45,-94.91 33.89,-97.39"/>
<polygon fill="grey" stroke="grey" points="32.41,-95.4 27.42,-100.89 34.74,-99.71 32.41,-95.4"/>
</g>
<!-- 5 -->
<g id="node5" class="node">
<title>5</title>
<ellipse fill="#ffffff" stroke="grey" cx="97.47" cy="-48.11" rx="14.5" ry="14.5"/>
<text text-anchor="middle" x="97.47" y="-44.41" font-family="Times,serif" font-size="14.00">5</text>
</g>
<!-- 1&#45;&gt;5 -->
<g id="edge3" class="edge">
<title>1&#45;&gt;5</title>
<path fill="none" stroke="grey" d="M71.37,-72.69C74.56,-69.69 78.12,-66.34 81.55,-63.11"/>
<polygon fill="grey" stroke="grey" points="83.36,-64.77 86.78,-58.18 80,-61.2 83.36,-64.77"/>
</g>
<!-- 7 -->
<g id="node7" class="node">
<title>7</title>
<ellipse fill="#ffffff" stroke="grey" cx="33.27" cy="-40.5" rx="14.5" ry="14.5"/>
<text text-anchor="middle" x="33.27" y="-36.8" font-family="Times,serif" font-size="14.00">7</text>
</g>
<!-- 1&#45;&gt;7 -->
<g id="edge4" class="edge">
<title>1&#45;&gt;7</title>
<path fill="none" stroke="grey" d="M52.46,-70.45C50.11,-66.79 47.5,-62.71 44.98,-58.77"/>
<polygon fill="grey" stroke="grey" points="46.97,-57.35 41.14,-52.78 42.85,-59.99 46.97,-57.35"/>
</g>
<!-- 4 -->
<g id="node4" class="node">
<title>4</title>
<ellipse fill="#ffffff" stroke="grey" cx="117.01" cy="-161.42" rx="14.5" ry="14.5"/>
<text text-anchor="middle" x="117.01" y="-157.72" font-family="Times,serif" font-size="14.00">4</text>
</g>
<!-- 2&#45;&gt;4 -->
<g id="edge5" class="edge">
<title>2&#45;&gt;4</title>
<path fill="none" stroke="grey" d="M89.86,-140.93C92.95,-143.26 96.33,-145.81 99.64,-148.31"/>
<polygon fill="grey" stroke="grey" points="98.35,-150.4 105.41,-152.66 101.3,-146.49 98.35,-150.4"/>
</g>
<!-- 6 -->
<g id="node6" class="node">
<title>6</title>
<ellipse fill="#ffffff" stroke="grey" cx="31.52" cy="-154.21" rx="14.5" ry="14.5"/>
<text text-anchor="middle" x="31.52" y="-150.51" font-family="Times,serif" font-size="14.00">6</text>
</g>
<!-- 2&#45;&gt;6 -->
<g id="edge6" class="edge">
<title>2&#45;&gt;6</title>
<path fill="none" stroke="grey" d="M64.74,-138.24C60.57,-140.25 55.85,-142.51 51.32,-144.69"/>
<polygon fill="grey" stroke="grey" points="50.13,-142.54 44.88,-147.78 52.25,-146.96 50.13,-142.54"/>
</g>
<!-- 3&#45;&gt;6 -->
<g id="edge7" class="edge">
<title>3&#45;&gt;6</title>
<path fill="none" stroke="grey" d="M19.51,-121.55C20.92,-125.37 22.48,-129.62 24,-133.75"/>
<polygon fill="grey" stroke="grey" points="21.77,-134.78 26.48,-140.5 26.37,-133.09 21.77,-134.78"/>
</g>
<!-- 8 -->
<g id="node8" class="node">
<title>8</title>
<ellipse fill="#ffffff" stroke="grey" cx="154.59" cy="-188.94" rx="14.5" ry="14.5"/>
<text text-anchor="middle" x="154.59" y="-185.24" font-family="Times,serif" font-size="14.00">8</text>
</g>
<!-- 4&#45;&gt;8 -->
<g id="edge8" class="edge">
<title>4&#45;&gt;8</title>
<path fill="none" stroke="grey" d="M128.9,-170.13C131.37,-171.93 134.02,-173.88 136.65,-175.8"/>
<polygon fill="grey" stroke="grey" points="135.55,-178.03 142.65,-180.19 138.45,-174.08 135.55,-178.03"/>
</g>
</g>
</svg>
