<?xml version="1.0" encoding="UTF-8" standalone="no"?>
<!DOCTYPE svg PUBLIC "-//W3C//DTD SVG 1.1//EN"
 "http://www.w3.org/Graphics/SVG/1.1/DTD/svg11.dtd">
<!-- Generated by graphviz version 2.43.0 (0)
 -->
<!-- Title: Prims Pages: 1 -->
<svg width="121pt" height="219pt"
 viewBox="0.00 0.00 121.00 219.00" xmlns="http://www.w3.org/2000/svg" xmlns:xlink="http://www.w3.org/1999/xlink">
<g id="graph0" class="graph" transform="scale(1 1) rotate(0) translate(4 215)">
<title>Prims</title>
<polygon fill="transparent" stroke="transparent" points="-4,4 -4,-215 117,-215 117,4 -4,4"/>
<text text-anchor="middle" x="56.5" y="-9.2" font-family="Times,serif" font-size="16.00" fill="grey">Prims</text>
<!-- 0 -->
<g id="node1" class="node">
<title>0</title>
<ellipse fill="#ffffff" stroke="grey" cx="32.5" cy="-196.5" rx="14.5" ry="14.5"/>
<text text-anchor="middle" x="32.5" y="-192.8" font-family="Times,serif" font-size="14.00">0</text>
</g>
<!-- 1 -->
<g id="node2" class="node">
<title>1</title>
<ellipse fill="#ffffff" stroke="grey" cx="14.5" cy="-118.5" rx="14.5" ry="14.5"/>
<text text-anchor="middle" x="14.5" y="-114.8" font-family="Times,serif" font-size="14.00">1</text>
</g>
<!-- 0&#45;&#45;1 -->
<g id="edge1" class="edge">
<title>0&#45;&#45;1</title>
<path fill="none" stroke="grey" d="M24.64,-184.09C21.13,-178.34 17.38,-171.09 15.5,-164 12.81,-153.84 12.7,-141.92 13.18,-132.97"/>
<text text-anchor="middle" x="25" y="-154.4" font-family="Times,serif" font-size="12.00" fill="grey">2.0</text>
</g>
<!-- 3 -->
<g id="node4" class="node">
<title>3</title>
<ellipse fill="#ffffff" stroke="grey" cx="79.5" cy="-118.5" rx="14.5" ry="14.5"/>
<text text-anchor="middle" x="79.5" y="-114.8" font-family="Times,serif" font-size="14.00">3</text>
</g>
<!-- 0&#45;&#45;3 -->
<g id="edge2" class="edge">
<title>0&#45;&#45;3</title>
<path fill="none" stroke="grey" d="M39.84,-183.62C48.62,-169.43 63.23,-145.81 72.05,-131.54"/>
<text text-anchor="middle" x="69" y="-154.4" font-family="Times,serif" font-size="12.00" fill="grey">3.0</text>
</g>
<!-- 2 -->
<g id="node3" class="node">
<title>2</title>
<ellipse fill="#ffffff" stroke="grey" cx="98.5" cy="-196.5" rx="14.5" ry="14.5"/>
<text text-anchor="middle" x="98.5" y="-192.8" font-family="Times,serif" font-size="14.00">2</text>
</g>
<!-- 2&#45;&#45;3 -->
<g id="edge3" class="edge">
<title>2&#45;&#45;3</title>
<path fill="none" stroke="grey" d="M95.19,-182.26C91.72,-168.4 86.31,-146.74 82.84,-132.84"/>
<text text-anchor="middle" x="100" y="-154.4" font-family="Times,serif" font-size="12.00" fill="grey">2.0</text>
</g>
<!-- 4 -->
<g id="node5" class="node">
<title>4</title>
<ellipse fill="#ffffff" stroke="grey" cx="79.5" cy="-40.5" rx="14.5" ry="14.5"/>
<text text-anchor="middle" x="79.5" y="-36.8" font-family="Times,serif" font-size="14.00">4</text>
</g>
<!-- 3&#45;&#45;4 -->
<g id="edge4" class="edge">
<title>3&#45;&#45;4</title>
<path fill="none" stroke="grey" d="M79.5,-103.91C79.5,-90.16 79.5,-69.02 79.5,-55.23"/>
<text text-anchor="middle" x="89" y="-76.4" font-family="Times,serif" font-size="12.00" fill="grey">1.0</text>
</g>
</g>
</svg>
